<svg width="115" height="92" viewBox="0 0 115 92" fill="none" xmlns="http://www.w3.org/2000/svg">
<g filter="url(#filter0_d_2_11450)">
<path d="M95.6431 61.8715C92.7881 64.1241 92.2998 68.2647 94.5524 71.1197C97.4074 68.8671 97.8957 64.7265 95.6431 61.8715Z" fill="url(#paint0_linear_2_11450)" shape-rendering="crispEdges"/>
<path d="M95.6431 61.8715C92.7881 64.1241 92.2998 68.2647 94.5524 71.1197C97.4074 68.8671 97.8957 64.7265 95.6431 61.8715Z" fill="white" fill-opacity="0.2" style="mix-blend-mode:overlay" shape-rendering="crispEdges"/>
</g>
<g filter="url(#filter1_d_2_11450)">
<path d="M39.8026 36.3163C36.2902 35.3737 32.6787 37.4569 31.7361 40.9693C35.2485 41.9119 38.86 39.8286 39.8026 36.3163Z" fill="url(#paint1_linear_2_11450)" shape-rendering="crispEdges"/>
<path d="M39.8026 36.3163C36.2902 35.3737 32.6787 37.4569 31.7361 40.9693C35.2485 41.9119 38.86 39.8286 39.8026 36.3163Z" fill="white" fill-opacity="0.2" style="mix-blend-mode:overlay" shape-rendering="crispEdges"/>
</g>
<g filter="url(#filter2_d_2_11450)">
<path d="M83.6095 61.1457C80.4592 62.9625 79.3783 66.9892 81.1951 70.1395C84.3454 68.3226 85.4264 64.2959 83.6095 61.1457Z" fill="url(#paint2_linear_2_11450)" shape-rendering="crispEdges"/>
<path d="M83.6095 61.1457C80.4592 62.9625 79.3783 66.9892 81.1951 70.1395C84.3454 68.3226 85.4264 64.2959 83.6095 61.1457Z" fill="white" fill-opacity="0.2" style="mix-blend-mode:overlay" shape-rendering="crispEdges"/>
</g>
<g filter="url(#filter3_d_2_11450)">
<path d="M29.6526 25.2202C26.0682 24.6056 22.6643 27.0131 22.0497 30.5974C25.634 31.212 29.038 28.8046 29.6526 25.2202Z" fill="url(#paint3_linear_2_11450)" shape-rendering="crispEdges"/>
<path d="M29.6526 25.2202C26.0682 24.6056 22.6643 27.0131 22.0497 30.5974C25.634 31.212 29.038 28.8046 29.6526 25.2202Z" fill="white" fill-opacity="0.2" style="mix-blend-mode:overlay" shape-rendering="crispEdges"/>
</g>
<g filter="url(#filter4_d_2_11450)">
<path d="M67.8352 55.1457C64.6849 56.9625 63.604 60.9892 65.4209 64.1395C68.5711 62.3226 69.6521 58.2959 67.8352 55.1457Z" fill="url(#paint4_linear_2_11450)" shape-rendering="crispEdges"/>
<path d="M67.8352 55.1457C64.6849 56.9625 63.604 60.9892 65.4209 64.1395C68.5711 62.3226 69.6521 58.2959 67.8352 55.1457Z" fill="white" fill-opacity="0.2" style="mix-blend-mode:overlay" shape-rendering="crispEdges"/>
</g>
<g filter="url(#filter5_d_2_11450)">
<path d="M22.8354 10.3348C19.3421 9.32375 15.6906 11.3361 14.6796 14.8294C18.1729 15.8404 21.8244 13.8281 22.8354 10.3348Z" fill="url(#paint5_linear_2_11450)" shape-rendering="crispEdges"/>
<path d="M22.8354 10.3348C19.3421 9.32375 15.6906 11.3361 14.6796 14.8294C18.1729 15.8404 21.8244 13.8281 22.8354 10.3348Z" fill="white" fill-opacity="0.2" style="mix-blend-mode:overlay" shape-rendering="crispEdges"/>
</g>
<g filter="url(#filter6_d_2_11450)">
<path d="M109.601 61.8417C106.781 64.1385 106.357 68.2861 108.654 71.1057C111.474 68.809 111.898 64.6613 109.601 61.8417Z" fill="url(#paint6_linear_2_11450)" shape-rendering="crispEdges"/>
<path d="M109.601 61.8417C106.781 64.1385 106.357 68.2861 108.654 71.1057C111.474 68.809 111.898 64.6613 109.601 61.8417Z" fill="white" fill-opacity="0.2" style="mix-blend-mode:overlay" shape-rendering="crispEdges"/>
</g>
<g filter="url(#filter7_d_2_11450)">
<path d="M53.2466 47.8331C49.637 48.276 47.0698 51.5612 47.5127 55.1708C51.1223 54.7279 53.6894 51.4427 53.2466 47.8331Z" fill="url(#paint7_linear_2_11450)" shape-rendering="crispEdges"/>
<path d="M53.2466 47.8331C49.637 48.276 47.0698 51.5612 47.5127 55.1708C51.1223 54.7279 53.6894 51.4427 53.2466 47.8331Z" fill="white" fill-opacity="0.2" style="mix-blend-mode:overlay" shape-rendering="crispEdges"/>
</g>
<path d="M132.729 51.0749C122.357 63.5619 91.4494 69.6263 58.2457 50.4562C25.042 31.286 18.1718 6.67086 23.0942 -7.33214" stroke="#23262D" stroke-width="1.3989"/>
<defs>
<filter id="filter0_d_2_11450" x="79.1479" y="47.8826" width="31.8998" height="37.2261" filterUnits="userSpaceOnUse" color-interpolation-filters="sRGB">
<feFlood flood-opacity="0" result="BackgroundImageFix"/>
<feColorMatrix in="SourceAlpha" type="matrix" values="0 0 0 0 0 0 0 0 0 0 0 0 0 0 0 0 0 0 127 0" result="hardAlpha"/>
<feOffset/>
<feGaussianBlur stdDeviation="6.99448"/>
<feComposite in2="hardAlpha" operator="out"/>
<feColorMatrix type="matrix" values="0 0 0 0 0.709804 0 0 0 0 0.243137 0 0 0 0 0.211765 0 0 0 1 0"/>
<feBlend mode="normal" in2="BackgroundImageFix" result="effect1_dropShadow_2_11450"/>
<feBlend mode="normal" in="SourceGraphic" in2="effect1_dropShadow_2_11450" result="shape"/>
</filter>
<filter id="filter1_d_2_11450" x="17.7471" y="22.1006" width="36.0444" height="33.0842" filterUnits="userSpaceOnUse" color-interpolation-filters="sRGB">
<feFlood flood-opacity="0" result="BackgroundImageFix"/>
<feColorMatrix in="SourceAlpha" type="matrix" values="0 0 0 0 0 0 0 0 0 0 0 0 0 0 0 0 0 0 127 0" result="hardAlpha"/>
<feOffset/>
<feGaussianBlur stdDeviation="6.99448"/>
<feComposite in2="hardAlpha" operator="out"/>
<feColorMatrix type="matrix" values="0 0 0 0 0.709804 0 0 0 0 0.243137 0 0 0 0 0.211765 0 0 0 1 0"/>
<feBlend mode="normal" in2="BackgroundImageFix" result="effect1_dropShadow_2_11450"/>
<feBlend mode="normal" in="SourceGraphic" in2="effect1_dropShadow_2_11450" result="shape"/>
</filter>
<filter id="filter2_d_2_11450" x="66.3244" y="47.1567" width="32.1558" height="36.9718" filterUnits="userSpaceOnUse" color-interpolation-filters="sRGB">
<feFlood flood-opacity="0" result="BackgroundImageFix"/>
<feColorMatrix in="SourceAlpha" type="matrix" values="0 0 0 0 0 0 0 0 0 0 0 0 0 0 0 0 0 0 127 0" result="hardAlpha"/>
<feOffset/>
<feGaussianBlur stdDeviation="6.99448"/>
<feComposite in2="hardAlpha" operator="out"/>
<feColorMatrix type="matrix" values="0 0 0 0 0.271699 0 0 0 0 0.709804 0 0 0 0 0.211765 0 0 0 1 0"/>
<feBlend mode="normal" in2="BackgroundImageFix" result="effect1_dropShadow_2_11450"/>
<feBlend mode="normal" in="SourceGraphic" in2="effect1_dropShadow_2_11450" result="shape"/>
</filter>
<filter id="filter3_d_2_11450" x="8.06072" y="11.1355" width="35.5808" height="33.5467" filterUnits="userSpaceOnUse" color-interpolation-filters="sRGB">
<feFlood flood-opacity="0" result="BackgroundImageFix"/>
<feColorMatrix in="SourceAlpha" type="matrix" values="0 0 0 0 0 0 0 0 0 0 0 0 0 0 0 0 0 0 127 0" result="hardAlpha"/>
<feOffset/>
<feGaussianBlur stdDeviation="6.99448"/>
<feComposite in2="hardAlpha" operator="out"/>
<feColorMatrix type="matrix" values="0 0 0 0 0.271699 0 0 0 0 0.709804 0 0 0 0 0.211765 0 0 0 1 0"/>
<feBlend mode="normal" in2="BackgroundImageFix" result="effect1_dropShadow_2_11450"/>
<feBlend mode="normal" in="SourceGraphic" in2="effect1_dropShadow_2_11450" result="shape"/>
</filter>
<filter id="filter4_d_2_11450" x="50.5501" y="41.1567" width="32.1558" height="36.9718" filterUnits="userSpaceOnUse" color-interpolation-filters="sRGB">
<feFlood flood-opacity="0" result="BackgroundImageFix"/>
<feColorMatrix in="SourceAlpha" type="matrix" values="0 0 0 0 0 0 0 0 0 0 0 0 0 0 0 0 0 0 127 0" result="hardAlpha"/>
<feOffset/>
<feGaussianBlur stdDeviation="6.99448"/>
<feComposite in2="hardAlpha" operator="out"/>
<feColorMatrix type="matrix" values="0 0 0 0 0.211765 0 0 0 0 0.446013 0 0 0 0 0.709804 0 0 0 1 0"/>
<feBlend mode="normal" in2="BackgroundImageFix" result="effect1_dropShadow_2_11450"/>
<feBlend mode="normal" in="SourceGraphic" in2="effect1_dropShadow_2_11450" result="shape"/>
</filter>
<filter id="filter5_d_2_11450" x="0.690605" y="-3.91547" width="36.1337" height="32.9951" filterUnits="userSpaceOnUse" color-interpolation-filters="sRGB">
<feFlood flood-opacity="0" result="BackgroundImageFix"/>
<feColorMatrix in="SourceAlpha" type="matrix" values="0 0 0 0 0 0 0 0 0 0 0 0 0 0 0 0 0 0 127 0" result="hardAlpha"/>
<feOffset/>
<feGaussianBlur stdDeviation="6.99448"/>
<feComposite in2="hardAlpha" operator="out"/>
<feColorMatrix type="matrix" values="0 0 0 0 0.211765 0 0 0 0 0.446013 0 0 0 0 0.709804 0 0 0 1 0"/>
<feBlend mode="normal" in2="BackgroundImageFix" result="effect1_dropShadow_2_11450"/>
<feBlend mode="normal" in="SourceGraphic" in2="effect1_dropShadow_2_11450" result="shape"/>
</filter>
<filter id="filter6_d_2_11450" x="93.1856" y="47.8527" width="31.8838" height="37.2419" filterUnits="userSpaceOnUse" color-interpolation-filters="sRGB">
<feFlood flood-opacity="0" result="BackgroundImageFix"/>
<feColorMatrix in="SourceAlpha" type="matrix" values="0 0 0 0 0 0 0 0 0 0 0 0 0 0 0 0 0 0 127 0" result="hardAlpha"/>
<feOffset/>
<feGaussianBlur stdDeviation="6.99448"/>
<feComposite in2="hardAlpha" operator="out"/>
<feColorMatrix type="matrix" values="0 0 0 0 0.670131 0 0 0 0 0.709804 0 0 0 0 0.211765 0 0 0 1 0"/>
<feBlend mode="normal" in2="BackgroundImageFix" result="effect1_dropShadow_2_11450"/>
<feBlend mode="normal" in="SourceGraphic" in2="effect1_dropShadow_2_11450" result="shape"/>
</filter>
<filter id="filter7_d_2_11450" x="33.4741" y="33.8442" width="33.8112" height="35.3156" filterUnits="userSpaceOnUse" color-interpolation-filters="sRGB">
<feFlood flood-opacity="0" result="BackgroundImageFix"/>
<feColorMatrix in="SourceAlpha" type="matrix" values="0 0 0 0 0 0 0 0 0 0 0 0 0 0 0 0 0 0 127 0" result="hardAlpha"/>
<feOffset/>
<feGaussianBlur stdDeviation="6.99448"/>
<feComposite in2="hardAlpha" operator="out"/>
<feColorMatrix type="matrix" values="0 0 0 0 0.670131 0 0 0 0 0.709804 0 0 0 0 0.211765 0 0 0 1 0"/>
<feBlend mode="normal" in2="BackgroundImageFix" result="effect1_dropShadow_2_11450"/>
<feBlend mode="normal" in="SourceGraphic" in2="effect1_dropShadow_2_11450" result="shape"/>
</filter>
<linearGradient id="paint0_linear_2_11450" x1="95.6431" y1="61.8715" x2="94.5524" y2="71.1197" gradientUnits="userSpaceOnUse">
<stop offset="0.046875" stop-color="#B53E36" stop-opacity="0.65"/>
<stop offset="1" stop-color="#B53E36"/>
</linearGradient>
<linearGradient id="paint1_linear_2_11450" x1="39.8026" y1="36.3163" x2="31.7361" y2="40.9693" gradientUnits="userSpaceOnUse">
<stop offset="0.046875" stop-color="#B53E36" stop-opacity="0.65"/>
<stop offset="1" stop-color="#B53E36"/>
</linearGradient>
<linearGradient id="paint2_linear_2_11450" x1="83.6095" y1="61.1457" x2="81.1951" y2="70.1395" gradientUnits="userSpaceOnUse">
<stop offset="0.046875" stop-color="#45B536" stop-opacity="0.65"/>
<stop offset="1" stop-color="#45B536"/>
</linearGradient>
<linearGradient id="paint3_linear_2_11450" x1="29.6526" y1="25.2202" x2="22.0497" y2="30.5974" gradientUnits="userSpaceOnUse">
<stop offset="0.046875" stop-color="#45B536" stop-opacity="0.65"/>
<stop offset="1" stop-color="#45B536"/>
</linearGradient>
<linearGradient id="paint4_linear_2_11450" x1="67.8352" y1="55.1457" x2="65.4209" y2="64.1395" gradientUnits="userSpaceOnUse">
<stop offset="0.046875" stop-color="#3672B5" stop-opacity="0.65"/>
<stop offset="1" stop-color="#3672B5"/>
</linearGradient>
<linearGradient id="paint5_linear_2_11450" x1="22.8354" y1="10.3348" x2="14.6796" y2="14.8294" gradientUnits="userSpaceOnUse">
<stop offset="0.046875" stop-color="#3672B5" stop-opacity="0.65"/>
<stop offset="1" stop-color="#3672B5"/>
</linearGradient>
<linearGradient id="paint6_linear_2_11450" x1="109.601" y1="61.8417" x2="108.654" y2="71.1057" gradientUnits="userSpaceOnUse">
<stop offset="0.046875" stop-color="#ABB536" stop-opacity="0.65"/>
<stop offset="1" stop-color="#ABB536"/>
</linearGradient>
<linearGradient id="paint7_linear_2_11450" x1="53.2466" y1="47.8331" x2="47.5127" y2="55.1708" gradientUnits="userSpaceOnUse">
<stop offset="0.046875" stop-color="#ABB536" stop-opacity="0.65"/>
<stop offset="1" stop-color="#ABB536"/>
</linearGradient>
</defs>
</svg>
