<svg width="134" height="99" viewBox="0 0 134 99" fill="none" xmlns="http://www.w3.org/2000/svg">
<g filter="url(#filter0_d_65_18)">
<path d="M95.643 69.8715C92.788 72.1241 92.2996 76.2647 94.5523 79.1197C97.4073 76.8671 97.8956 72.7265 95.643 69.8715Z" fill="url(#paint0_linear_65_18)" shape-rendering="crispEdges"/>
<path d="M95.643 69.8715C92.788 72.1241 92.2996 76.2647 94.5523 79.1197C97.4073 76.8671 97.8956 72.7265 95.643 69.8715Z" fill="white" fill-opacity="0.2" style="mix-blend-mode:overlay" shape-rendering="crispEdges"/>
</g>
<g filter="url(#filter1_d_65_18)">
<path d="M39.8024 44.3163C36.2901 43.3737 32.6786 45.4569 31.736 48.9693C35.2484 49.9119 38.8598 47.8286 39.8024 44.3163Z" fill="url(#paint1_linear_65_18)" shape-rendering="crispEdges"/>
<path d="M39.8024 44.3163C36.2901 43.3737 32.6786 45.4569 31.736 48.9693C35.2484 49.9119 38.8598 47.8286 39.8024 44.3163Z" fill="white" fill-opacity="0.2" style="mix-blend-mode:overlay" shape-rendering="crispEdges"/>
</g>
<g filter="url(#filter2_d_65_18)">
<path d="M83.6092 69.1457C80.459 70.9625 79.378 74.9892 81.1949 78.1395C84.3452 76.3226 85.4261 72.2959 83.6092 69.1457Z" fill="url(#paint2_linear_65_18)" shape-rendering="crispEdges"/>
<path d="M83.6092 69.1457C80.459 70.9625 79.378 74.9892 81.1949 78.1395C84.3452 76.3226 85.4261 72.2959 83.6092 69.1457Z" fill="white" fill-opacity="0.2" style="mix-blend-mode:overlay" shape-rendering="crispEdges"/>
</g>
<g filter="url(#filter3_d_65_18)">
<path d="M29.6525 33.2202C26.0681 32.6056 22.6642 35.0131 22.0496 38.5974C25.6339 39.212 29.0378 36.8046 29.6525 33.2202Z" fill="url(#paint3_linear_65_18)" shape-rendering="crispEdges"/>
<path d="M29.6525 33.2202C26.0681 32.6056 22.6642 35.0131 22.0496 38.5974C25.6339 39.212 29.0378 36.8046 29.6525 33.2202Z" fill="white" fill-opacity="0.2" style="mix-blend-mode:overlay" shape-rendering="crispEdges"/>
</g>
<g filter="url(#filter4_d_65_18)">
<path d="M67.8351 63.1457C64.6848 64.9625 63.6039 68.9892 65.4207 72.1395C68.571 70.3226 69.6519 66.2959 67.8351 63.1457Z" fill="url(#paint4_linear_65_18)" shape-rendering="crispEdges"/>
<path d="M67.8351 63.1457C64.6848 64.9625 63.6039 68.9892 65.4207 72.1395C68.571 70.3226 69.6519 66.2959 67.8351 63.1457Z" fill="white" fill-opacity="0.2" style="mix-blend-mode:overlay" shape-rendering="crispEdges"/>
</g>
<g filter="url(#filter5_d_65_18)">
<path d="M22.8352 18.3348C19.3419 17.3238 15.6905 19.3361 14.6795 22.8294C18.1728 23.8404 21.8242 21.8281 22.8352 18.3348Z" fill="url(#paint5_linear_65_18)" shape-rendering="crispEdges"/>
<path d="M22.8352 18.3348C19.3419 17.3238 15.6905 19.3361 14.6795 22.8294C18.1728 23.8404 21.8242 21.8281 22.8352 18.3348Z" fill="white" fill-opacity="0.2" style="mix-blend-mode:overlay" shape-rendering="crispEdges"/>
</g>
<g filter="url(#filter6_d_65_18)">
<path d="M109.601 69.8417C106.781 72.1385 106.357 76.2861 108.654 79.1057C111.474 76.809 111.897 72.6613 109.601 69.8417Z" fill="url(#paint6_linear_65_18)" shape-rendering="crispEdges"/>
<path d="M109.601 69.8417C106.781 72.1385 106.357 76.2861 108.654 79.1057C111.474 76.809 111.897 72.6613 109.601 69.8417Z" fill="white" fill-opacity="0.2" style="mix-blend-mode:overlay" shape-rendering="crispEdges"/>
</g>
<g filter="url(#filter7_d_65_18)">
<path d="M53.2464 55.8331C49.6368 56.276 47.0697 59.5612 47.5126 63.1708C51.1222 62.7279 53.6893 59.4427 53.2464 55.8331Z" fill="url(#paint7_linear_65_18)" shape-rendering="crispEdges"/>
<path d="M53.2464 55.8331C49.6368 56.276 47.0697 59.5612 47.5126 63.1708C51.1222 62.7279 53.6893 59.4427 53.2464 55.8331Z" fill="white" fill-opacity="0.2" style="mix-blend-mode:overlay" shape-rendering="crispEdges"/>
</g>
<path d="M132.729 59.0749C122.357 71.5619 91.4493 77.6263 58.2456 58.4562C25.0419 39.286 18.1717 14.6709 23.0941 0.667864" stroke="#23262D" stroke-width="1.3989"/>
<defs>
<filter id="filter0_d_65_18" x="79.1478" y="55.8826" width="31.8998" height="37.2261" filterUnits="userSpaceOnUse" color-interpolation-filters="sRGB">
<feFlood flood-opacity="0" result="BackgroundImageFix"/>
<feColorMatrix in="SourceAlpha" type="matrix" values="0 0 0 0 0 0 0 0 0 0 0 0 0 0 0 0 0 0 127 0" result="hardAlpha"/>
<feOffset/>
<feGaussianBlur stdDeviation="6.99448"/>
<feComposite in2="hardAlpha" operator="out"/>
<feColorMatrix type="matrix" values="0 0 0 0 0.709804 0 0 0 0 0.243137 0 0 0 0 0.211765 0 0 0 1 0"/>
<feBlend mode="normal" in2="BackgroundImageFix" result="effect1_dropShadow_65_18"/>
<feBlend mode="normal" in="SourceGraphic" in2="effect1_dropShadow_65_18" result="shape"/>
</filter>
<filter id="filter1_d_65_18" x="17.7471" y="30.1006" width="36.0443" height="33.0843" filterUnits="userSpaceOnUse" color-interpolation-filters="sRGB">
<feFlood flood-opacity="0" result="BackgroundImageFix"/>
<feColorMatrix in="SourceAlpha" type="matrix" values="0 0 0 0 0 0 0 0 0 0 0 0 0 0 0 0 0 0 127 0" result="hardAlpha"/>
<feOffset/>
<feGaussianBlur stdDeviation="6.99448"/>
<feComposite in2="hardAlpha" operator="out"/>
<feColorMatrix type="matrix" values="0 0 0 0 0.709804 0 0 0 0 0.243137 0 0 0 0 0.211765 0 0 0 1 0"/>
<feBlend mode="normal" in2="BackgroundImageFix" result="effect1_dropShadow_65_18"/>
<feBlend mode="normal" in="SourceGraphic" in2="effect1_dropShadow_65_18" result="shape"/>
</filter>
<filter id="filter2_d_65_18" x="66.3243" y="55.1567" width="32.1557" height="36.9718" filterUnits="userSpaceOnUse" color-interpolation-filters="sRGB">
<feFlood flood-opacity="0" result="BackgroundImageFix"/>
<feColorMatrix in="SourceAlpha" type="matrix" values="0 0 0 0 0 0 0 0 0 0 0 0 0 0 0 0 0 0 127 0" result="hardAlpha"/>
<feOffset/>
<feGaussianBlur stdDeviation="6.99448"/>
<feComposite in2="hardAlpha" operator="out"/>
<feColorMatrix type="matrix" values="0 0 0 0 0.271699 0 0 0 0 0.709804 0 0 0 0 0.211765 0 0 0 1 0"/>
<feBlend mode="normal" in2="BackgroundImageFix" result="effect1_dropShadow_65_18"/>
<feBlend mode="normal" in="SourceGraphic" in2="effect1_dropShadow_65_18" result="shape"/>
</filter>
<filter id="filter3_d_65_18" x="8.0606" y="19.1355" width="35.5809" height="33.5467" filterUnits="userSpaceOnUse" color-interpolation-filters="sRGB">
<feFlood flood-opacity="0" result="BackgroundImageFix"/>
<feColorMatrix in="SourceAlpha" type="matrix" values="0 0 0 0 0 0 0 0 0 0 0 0 0 0 0 0 0 0 127 0" result="hardAlpha"/>
<feOffset/>
<feGaussianBlur stdDeviation="6.99448"/>
<feComposite in2="hardAlpha" operator="out"/>
<feColorMatrix type="matrix" values="0 0 0 0 0.271699 0 0 0 0 0.709804 0 0 0 0 0.211765 0 0 0 1 0"/>
<feBlend mode="normal" in2="BackgroundImageFix" result="effect1_dropShadow_65_18"/>
<feBlend mode="normal" in="SourceGraphic" in2="effect1_dropShadow_65_18" result="shape"/>
</filter>
<filter id="filter4_d_65_18" x="50.5501" y="49.1567" width="32.1557" height="36.9718" filterUnits="userSpaceOnUse" color-interpolation-filters="sRGB">
<feFlood flood-opacity="0" result="BackgroundImageFix"/>
<feColorMatrix in="SourceAlpha" type="matrix" values="0 0 0 0 0 0 0 0 0 0 0 0 0 0 0 0 0 0 127 0" result="hardAlpha"/>
<feOffset/>
<feGaussianBlur stdDeviation="6.99448"/>
<feComposite in2="hardAlpha" operator="out"/>
<feColorMatrix type="matrix" values="0 0 0 0 0.211765 0 0 0 0 0.446013 0 0 0 0 0.709804 0 0 0 1 0"/>
<feBlend mode="normal" in2="BackgroundImageFix" result="effect1_dropShadow_65_18"/>
<feBlend mode="normal" in="SourceGraphic" in2="effect1_dropShadow_65_18" result="shape"/>
</filter>
<filter id="filter5_d_65_18" x="0.690483" y="4.08452" width="36.1337" height="32.9951" filterUnits="userSpaceOnUse" color-interpolation-filters="sRGB">
<feFlood flood-opacity="0" result="BackgroundImageFix"/>
<feColorMatrix in="SourceAlpha" type="matrix" values="0 0 0 0 0 0 0 0 0 0 0 0 0 0 0 0 0 0 127 0" result="hardAlpha"/>
<feOffset/>
<feGaussianBlur stdDeviation="6.99448"/>
<feComposite in2="hardAlpha" operator="out"/>
<feColorMatrix type="matrix" values="0 0 0 0 0.211765 0 0 0 0 0.446013 0 0 0 0 0.709804 0 0 0 1 0"/>
<feBlend mode="normal" in2="BackgroundImageFix" result="effect1_dropShadow_65_18"/>
<feBlend mode="normal" in="SourceGraphic" in2="effect1_dropShadow_65_18" result="shape"/>
</filter>
<filter id="filter6_d_65_18" x="93.1854" y="55.8528" width="31.8839" height="37.2419" filterUnits="userSpaceOnUse" color-interpolation-filters="sRGB">
<feFlood flood-opacity="0" result="BackgroundImageFix"/>
<feColorMatrix in="SourceAlpha" type="matrix" values="0 0 0 0 0 0 0 0 0 0 0 0 0 0 0 0 0 0 127 0" result="hardAlpha"/>
<feOffset/>
<feGaussianBlur stdDeviation="6.99448"/>
<feComposite in2="hardAlpha" operator="out"/>
<feColorMatrix type="matrix" values="0 0 0 0 0.670131 0 0 0 0 0.709804 0 0 0 0 0.211765 0 0 0 1 0"/>
<feBlend mode="normal" in2="BackgroundImageFix" result="effect1_dropShadow_65_18"/>
<feBlend mode="normal" in="SourceGraphic" in2="effect1_dropShadow_65_18" result="shape"/>
</filter>
<filter id="filter7_d_65_18" x="33.4739" y="41.8442" width="33.8112" height="35.3156" filterUnits="userSpaceOnUse" color-interpolation-filters="sRGB">
<feFlood flood-opacity="0" result="BackgroundImageFix"/>
<feColorMatrix in="SourceAlpha" type="matrix" values="0 0 0 0 0 0 0 0 0 0 0 0 0 0 0 0 0 0 127 0" result="hardAlpha"/>
<feOffset/>
<feGaussianBlur stdDeviation="6.99448"/>
<feComposite in2="hardAlpha" operator="out"/>
<feColorMatrix type="matrix" values="0 0 0 0 0.670131 0 0 0 0 0.709804 0 0 0 0 0.211765 0 0 0 1 0"/>
<feBlend mode="normal" in2="BackgroundImageFix" result="effect1_dropShadow_65_18"/>
<feBlend mode="normal" in="SourceGraphic" in2="effect1_dropShadow_65_18" result="shape"/>
</filter>
<linearGradient id="paint0_linear_65_18" x1="95.643" y1="69.8715" x2="94.5523" y2="79.1197" gradientUnits="userSpaceOnUse">
<stop offset="0.046875" stop-color="#B53E36" stop-opacity="0.65"/>
<stop offset="1" stop-color="#B53E36"/>
</linearGradient>
<linearGradient id="paint1_linear_65_18" x1="39.8024" y1="44.3163" x2="31.736" y2="48.9693" gradientUnits="userSpaceOnUse">
<stop offset="0.046875" stop-color="#B53E36" stop-opacity="0.65"/>
<stop offset="1" stop-color="#B53E36"/>
</linearGradient>
<linearGradient id="paint2_linear_65_18" x1="83.6092" y1="69.1457" x2="81.1949" y2="78.1395" gradientUnits="userSpaceOnUse">
<stop offset="0.046875" stop-color="#45B536" stop-opacity="0.65"/>
<stop offset="1" stop-color="#45B536"/>
</linearGradient>
<linearGradient id="paint3_linear_65_18" x1="29.6525" y1="33.2202" x2="22.0496" y2="38.5974" gradientUnits="userSpaceOnUse">
<stop offset="0.046875" stop-color="#45B536" stop-opacity="0.65"/>
<stop offset="1" stop-color="#45B536"/>
</linearGradient>
<linearGradient id="paint4_linear_65_18" x1="67.8351" y1="63.1457" x2="65.4207" y2="72.1395" gradientUnits="userSpaceOnUse">
<stop offset="0.046875" stop-color="#3672B5" stop-opacity="0.65"/>
<stop offset="1" stop-color="#3672B5"/>
</linearGradient>
<linearGradient id="paint5_linear_65_18" x1="22.8352" y1="18.3348" x2="14.6795" y2="22.8294" gradientUnits="userSpaceOnUse">
<stop offset="0.046875" stop-color="#3672B5" stop-opacity="0.65"/>
<stop offset="1" stop-color="#3672B5"/>
</linearGradient>
<linearGradient id="paint6_linear_65_18" x1="109.601" y1="69.8417" x2="108.654" y2="79.1057" gradientUnits="userSpaceOnUse">
<stop offset="0.046875" stop-color="#ABB536" stop-opacity="0.65"/>
<stop offset="1" stop-color="#ABB536"/>
</linearGradient>
<linearGradient id="paint7_linear_65_18" x1="53.2464" y1="55.8331" x2="47.5126" y2="63.1708" gradientUnits="userSpaceOnUse">
<stop offset="0.046875" stop-color="#ABB536" stop-opacity="0.65"/>
<stop offset="1" stop-color="#ABB536"/>
</linearGradient>
</defs>
</svg>
