<svg width="29" height="36" viewBox="0 0 29 36" fill="none" xmlns="http://www.w3.org/2000/svg">
<path d="M9.30541 30.6629C7.675 29.1762 7.19904 26.0525 7.87831 23.7895C9.05614 25.2163 10.6881 25.6683 12.3785 25.9234C14.9881 26.3171 17.551 26.1698 19.9752 24.98C20.2525 24.8438 20.5088 24.6627 20.8118 24.4792C21.0392 25.1375 21.0985 25.8021 21.019 26.4785C20.8258 28.1258 20.004 29.3983 18.6968 30.3629C18.1741 30.7487 17.6211 31.0936 17.0812 31.4574C15.4228 32.5755 14.9741 33.8866 15.5973 35.7937C15.6121 35.8402 15.6253 35.8866 15.6588 36C14.812 35.6221 14.1935 35.0717 13.7223 34.348C13.2245 33.5842 12.9877 32.7393 12.9752 31.8251C12.969 31.3802 12.969 30.9314 12.909 30.4928C12.7625 29.4235 12.2593 28.9447 11.3113 28.9172C10.3383 28.8888 9.56871 29.4888 9.36461 30.4337C9.34903 30.5062 9.32644 30.5778 9.30385 30.6621L9.30541 30.6629Z" fill="white"/>
<path d="M0 23.4124C0 23.4124 4.82792 21.0664 9.66934 21.0664L13.3196 9.79757C13.4563 9.2526 13.8553 8.88226 14.3058 8.88226C14.7562 8.88226 15.1553 9.2526 15.2919 9.79757L18.9422 21.0664C24.6761 21.0664 28.6115 23.4124 28.6115 23.4124C28.6115 23.4124 20.4109 1.12789 20.3949 1.08318C20.1595 0.424331 19.7622 0 19.2265 0H9.38589C8.85021 0 8.4689 0.424331 8.21751 1.08318C8.19979 1.12705 0 23.4124 0 23.4124Z" fill="white"/>
</svg>
